<?xml version="1.0" encoding="utf-8"?>
<!-- Generator: Adobe Illustrator 18.1.1, SVG Export Plug-In . SVG Version: 6.00 Build 0)  -->
<svg version="1.1" id="Layer_1" xmlns:sketch="http://www.bohemiancoding.com/sketch/ns"
	 xmlns="http://www.w3.org/2000/svg" xmlns:xlink="http://www.w3.org/1999/xlink" x="0px" y="0px" viewBox="-283 368 44 57"
	 enable-background="new -283 368 44 57" xml:space="preserve">
<title>48 - Pacman Ghost (Flat)</title>
<desc>Created with Sketch.</desc>
<g id="Page-1" sketch:type="MSPage">
	<g id="_x34_8---Pacman-Ghost-_x28_Flat_x29_" sketch:type="MSLayerGroup">
		<path id="Fill-50" sketch:type="MSShapeGroup" fill="#42CAFD" d="M-283,390v33.2l10.9,1.6l11.6,0l11.6,0l9.9-1.8v-33
			c0-12.1-9.9-22-22-22S-283,377.9-283,390"/>
		<path id="Fill-87_2_" sketch:type="MSShapeGroup" fill="#42CAFD" d="M-261,405.8"/>
		<path id="Fill-87_1_" sketch:type="MSShapeGroup" fill="#42CAFD" d="M-270.5,399.4"/>
		<path id="Fill-146" sketch:type="MSShapeGroup" fill="#FFFFFF" d="M-250,387c0,2.2-1.1,4-2.5,4c-1.4,0-2.5-1.8-2.5-4s1.1-4,2.5-4
			C-251.1,383-250,384.8-250,387"/>
		<path id="Fill-145" sketch:type="MSShapeGroup" fill="#FFFFFF" d="M-265.8,387c0,2.1-1.1,3.9-2.5,3.9c-1.4,0-2.5-1.7-2.5-3.9
			s1.1-3.9,2.5-3.9C-267,383.1-265.8,384.9-265.8,387"/>
	</g>
</g>
<g id="Page-1_1_" sketch:type="MSPage">
	<g id="Icons" transform="translate(-601.000000, -3958.000000)" sketch:type="MSArtboardGroup">
		<g id="_x37_6---Time-_x28_Flat_x29_" transform="translate(601.000000, 3958.000000)" sketch:type="MSLayerGroup">
			<path id="Fill-115" sketch:type="MSShapeGroup" fill="#FFFFFF" d="M-256.3,397.4c0,2.6-2.1,4.7-4.7,4.7s-4.7-2.1-4.7-4.7
				c0-2.6,2.1-4.7,4.7-4.7S-256.3,394.8-256.3,397.4"/>
			<path id="Fill-116" sketch:type="MSShapeGroup" fill="#FFFFFF" d="M-265.7,397.4c0,0,0,0.1,0,0.1h4.7v-4.9
				C-263.6,392.6-265.7,394.8-265.7,397.4"/>
			<path id="Fill-1231" sketch:type="MSShapeGroup" fill="#4393BF" d="M-261,393.8c-0.1,0-0.2,0.1-0.2,0.2v3.8h-2.5
				c-0.1,0-0.2,0.1-0.2,0.2c0,0.1,0.1,0.2,0.2,0.2h2.6c0.1,0,0.2-0.1,0.2-0.2v-3.9C-260.8,393.8-260.9,393.8-261,393.8"/>
			<path id="Fill-1232" sketch:type="MSShapeGroup" fill="#424A60" d="M-261,393.5c-0.1,0-0.2,0.1-0.2,0.2v3.8h-2.5
				c-0.1,0-0.2,0.1-0.2,0.2s0.1,0.2,0.2,0.2h2.6c0.1,0,0.2-0.1,0.2-0.2v-3.9C-260.8,393.5-260.9,393.5-261,393.5"/>
		</g>
	</g>
</g>
<path fill="#FFFFFF" d="M-250,407.3c0,2.1-4.9,3.9-10.9,3.9c-6,0-10.9-1.7-10.9-3.9"/>
</svg>
