<?xml version="1.0" encoding="utf-8"?>
<!-- Generator: Adobe Illustrator 18.1.1, SVG Export Plug-In . SVG Version: 6.00 Build 0)  -->
<svg version="1.1" id="Layer_1" xmlns:sketch="http://www.bohemiancoding.com/sketch/ns"
	 xmlns="http://www.w3.org/2000/svg" xmlns:xlink="http://www.w3.org/1999/xlink" x="0px" y="0px" viewBox="0 0 611 792"
	 enable-background="new 0 0 611 792" xml:space="preserve">
<title>48 - Pacman Ghost (Flat)</title>
<desc>Created with Sketch.</desc>
<g id="Page-1_1_" sketch:type="MSPage">
	<g id="Icons" transform="translate(-601.000000, -3958.000000)" sketch:type="MSArtboardGroup">
		<g id="_x37_6---Time-_x28_Flat_x29_" transform="translate(601.000000, 3958.000000)" sketch:type="MSLayerGroup">
			
				<path id="Fill-115" sketch:type="MSShapeGroup" fill="none" stroke="#747A7C" stroke-width="18" stroke-linecap="round" stroke-miterlimit="10" d="
				M611,399.4C611,576.6,461,718,280.9,704C132.2,692.4,12.5,572.7,1,424C-13,243.8,128.4,93.9,305.5,93.9
				C474.5,93.9,611,230.4,611,399.4"/>
		</g>
	</g>
</g>
<path fill="#747A7C" d="M305.6,203c-80.5,0-146.4,65.8-146.4,146.3v220.9l63.3-6.3l86.4,16.9l69.9-20.2l73.2,8.2V349.3
	C452,268.8,386.2,203,305.6,203z M257.1,355.3c-9.3,0-16.6-11.3-16.6-26c0-14.7,7.3-26,16.6-26c8.6,0.1,16.6,12,16.6,26
	C273.6,343.3,266.3,355.3,257.1,355.3z M362.2,355.9c-9.3,0-16.6-12-16.6-26.6c0-14.6,7.3-26.6,16.6-26.6c9.3,0,16.6,12,16.6,26.6
	C378.8,343.9,371.5,355.9,362.2,355.9z"/>
<line fill="none" stroke="#747A7C" stroke-width="18" stroke-linecap="round" stroke-miterlimit="10" x1="19.5" y1="399.4" x2="55.5" y2="399.4"/>
<line fill="none" stroke="#747A7C" stroke-width="18" stroke-linecap="round" stroke-miterlimit="10" x1="555.4" y1="399.4" x2="591.6" y2="399.4"/>
<line fill="none" stroke="#747A7C" stroke-width="18" stroke-linecap="round" stroke-miterlimit="10" x1="57.8" y1="542.5" x2="89" y2="524.5"/>
<line fill="none" stroke="#747A7C" stroke-width="18" stroke-linecap="round" stroke-miterlimit="10" x1="521.9" y1="274.5" x2="553.3" y2="256.4"/>
<line fill="none" stroke="#747A7C" stroke-width="18" stroke-linecap="round" stroke-miterlimit="10" x1="305.6" y1="685.5" x2="305.6" y2="649.5"/>
<line fill="none" stroke="#747A7C" stroke-width="18" stroke-linecap="round" stroke-miterlimit="10" x1="305.6" y1="149.6" x2="305.6" y2="113.4"/>
<line fill="none" stroke="#747A7C" stroke-width="18" stroke-linecap="round" stroke-miterlimit="10" x1="162.5" y1="647.2" x2="180.5" y2="616"/>
<line fill="none" stroke="#747A7C" stroke-width="18" stroke-linecap="round" stroke-miterlimit="10" x1="430.5" y1="183.1" x2="448.6" y2="151.7"/>
<line fill="none" stroke="#747A7C" stroke-width="18" stroke-linecap="round" stroke-miterlimit="10" x1="448.6" y1="647.2" x2="430.6" y2="616"/>
<line fill="none" stroke="#747A7C" stroke-width="18" stroke-linecap="round" stroke-miterlimit="10" x1="180.6" y1="183.1" x2="162.5" y2="151.7"/>
<line fill="none" stroke="#747A7C" stroke-width="18" stroke-linecap="round" stroke-miterlimit="10" x1="553.3" y1="542.5" x2="522.1" y2="524.5"/>
<line fill="none" stroke="#747A7C" stroke-width="18" stroke-linecap="round" stroke-miterlimit="10" x1="89.2" y1="274.5" x2="57.8" y2="256.4"/>
<line fill="none" stroke="#747A7C" stroke-width="21.4821" stroke-linecap="round" stroke-miterlimit="10" x1="25.5" y1="399.4" x2="193" y2="399.4"/>
<line fill="none" stroke="#747A7C" stroke-width="25.4176" stroke-linecap="round" stroke-miterlimit="10" x1="416" y1="368" x2="569.2" y2="309.5"/>
</svg>
